<svg width="20" height="19" viewBox="0 0 20 19" fill="none" xmlns="http://www.w3.org/2000/svg">
<path d="M19.5 7C19.5 7.19891 19.421 7.38968 19.2804 7.53033C19.1397 7.67098 18.949 7.75 18.75 7.75H17.25V9.25C17.25 9.44891 17.171 9.63968 17.0304 9.78033C16.8897 9.92098 16.699 10 16.5 10C16.3011 10 16.1104 9.92098 15.9697 9.78033C15.8291 9.63968 15.75 9.44891 15.75 9.25V7.75H14.25C14.0511 7.75 13.8604 7.67098 13.7197 7.53033C13.5791 7.38968 13.5 7.19891 13.5 7C13.5 6.80109 13.5791 6.61032 13.7197 6.46967C13.8604 6.32902 14.0511 6.25 14.25 6.25H15.75V4.75C15.75 4.55109 15.8291 4.36032 15.9697 4.21967C16.1104 4.07902 16.3011 4 16.5 4C16.699 4 16.8897 4.07902 17.0304 4.21967C17.171 4.36032 17.25 4.55109 17.25 4.75V6.25H18.75C18.949 6.25 19.1397 6.32902 19.2804 6.46967C19.421 6.61032 19.5 6.80109 19.5 7ZM10.5 3.25H11.25V4C11.25 4.19891 11.3291 4.38968 11.4697 4.53033C11.6104 4.67098 11.8011 4.75 12 4.75C12.1989 4.75 12.3897 4.67098 12.5304 4.53033C12.671 4.38968 12.75 4.19891 12.75 4V3.25H13.5C13.699 3.25 13.8897 3.17098 14.0304 3.03033C14.171 2.88968 14.25 2.69891 14.25 2.5C14.25 2.30109 14.171 2.11032 14.0304 1.96967C13.8897 1.82902 13.699 1.75 13.5 1.75H12.75V1C12.75 0.801088 12.671 0.610322 12.5304 0.46967C12.3897 0.329018 12.1989 0.25 12 0.25C11.8011 0.25 11.6104 0.329018 11.4697 0.46967C11.3291 0.610322 11.25 0.801088 11.25 1V1.75H10.5C10.3011 1.75 10.1104 1.82902 9.96971 1.96967C9.82905 2.11032 9.75004 2.30109 9.75004 2.5C9.75004 2.69891 9.82905 2.88968 9.96971 3.03033C10.1104 3.17098 10.3011 3.25 10.5 3.25ZM16.6069 12.0934C15.2766 12.3563 13.9021 12.2874 12.6047 11.8929C11.3074 11.4985 10.1272 10.7906 9.16832 9.83172C8.20948 8.87289 7.50156 7.69266 7.1071 6.3953C6.71264 5.09795 6.64377 3.72341 6.9066 2.39313C6.93235 2.26258 6.9229 2.12753 6.87922 2.00184C6.83555 1.87614 6.75922 1.76434 6.65807 1.67788C6.55692 1.59142 6.43459 1.53344 6.30363 1.50987C6.17267 1.4863 6.0378 1.49799 5.91285 1.54375C4.49266 2.06306 3.22622 2.93183 2.23046 4.06985C1.2347 5.20786 0.541733 6.57843 0.215546 8.05498C-0.110642 9.53154 -0.059532 11.0665 0.364155 12.5181C0.787842 13.9696 1.57045 15.2911 2.6397 16.3603C3.70896 17.4296 5.03039 18.2122 6.48197 18.6359C7.93356 19.0596 9.4685 19.1107 10.9451 18.7845C12.4216 18.4583 13.7922 17.7653 14.9302 16.7696C16.0682 15.7738 16.937 14.5074 17.4563 13.0872C17.502 12.9622 17.5137 12.8274 17.4902 12.6964C17.4666 12.5654 17.4086 12.4431 17.3222 12.342C17.2357 12.2408 17.1239 12.1645 16.9982 12.1208C16.8725 12.0771 16.7375 12.0677 16.6069 12.0934Z" fill="#1C1812"/>
</svg>
